<svg width="529" height="514" viewBox="0 0 529 514" fill="none" xmlns="http://www.w3.org/2000/svg">
<g filter="url(#filter0_f_141_159)">
<circle cx="264.5" cy="249.5" r="123.5" fill="url(#paint0_linear_141_159)"/>
</g>
<circle cx="264.5" cy="249.5" r="93.5" fill="url(#paint1_linear_141_159)"/>
<path d="M232.706 234.902L232.781 234.927L232.858 234.945L234.738 235.395C236.416 235.797 238.136 236 239.861 236H243H243.836C246.206 236 248.544 235.452 250.667 234.398L251.534 233.968L250.645 232.176L251.534 233.968C251.649 233.911 251.769 233.866 251.892 233.833L252.81 233.592C254.099 233.252 255.154 234.644 254.477 235.794C254.285 236.121 253.975 236.363 253.61 236.47L251.614 237.055L248.487 237.666C247.35 237.888 246.194 238 245.035 238H236.965C235.806 238 234.65 237.888 233.513 237.666L230.386 237.055L228.327 236.451C227.99 236.353 227.702 236.132 227.519 235.832C226.835 234.713 227.913 233.347 229.161 233.752L232.706 234.902Z" stroke="black" stroke-width="4"/>
<path d="M279.897 235.853L280.01 235.89L280.125 235.918L282.005 236.368C283.76 236.788 285.557 237 287.361 237H284.465C283.371 237 282.279 236.894 281.205 236.684L278.123 236.082L276.109 235.492C276.01 235.463 275.926 235.398 275.873 235.311C275.797 235.187 275.796 235.114 275.8 235.072C275.805 235.011 275.833 234.925 275.901 234.84C275.968 234.754 276.045 234.707 276.104 234.688C276.143 234.675 276.214 234.658 276.352 234.703L279.897 235.853ZM292.535 237H291.336C293.861 237 296.351 236.416 298.612 235.294L299.479 234.863L298.159 232.204L299.479 234.863C299.532 234.837 299.589 234.816 299.647 234.8L300.564 234.559C300.712 234.52 300.798 234.539 300.855 234.56C300.927 234.587 301.012 234.644 301.084 234.738C301.155 234.832 301.187 234.93 301.193 235.007C301.198 235.067 301.193 235.155 301.116 235.287C301.052 235.395 300.949 235.475 300.829 235.51L298.877 236.082L295.795 236.684C294.721 236.894 293.629 237 292.535 237Z" stroke="black" stroke-width="6"/>
<path d="M290.5 258.5C293.261 258.5 295.311 260.936 293.315 262.844C291.845 264.248 289.664 265.539 286.86 266.632C281.327 268.788 273.824 270 266 270C258.176 270 250.673 268.788 245.14 266.632C242.336 265.539 240.155 264.248 238.685 262.844C236.689 260.936 238.739 258.5 241.5 258.5L266 258.5H290.5Z" fill="black"/>
<defs>
<filter id="filter0_f_141_159" x="0" y="-15" width="529" height="529" filterUnits="userSpaceOnUse" color-interpolation-filters="sRGB">
<feFlood flood-opacity="0" result="BackgroundImageFix"/>
<feBlend mode="normal" in="SourceGraphic" in2="BackgroundImageFix" result="shape"/>
<feGaussianBlur stdDeviation="70.5" result="effect1_foregroundBlur_141_159"/>
</filter>
<linearGradient id="paint0_linear_141_159" x1="264.5" y1="126" x2="264.5" y2="373" gradientUnits="userSpaceOnUse">
<stop stop-color="#1D91C7"/>
<stop offset="1" stop-color="#DFEEF4"/>
</linearGradient>
<linearGradient id="paint1_linear_141_159" x1="264.5" y1="156" x2="264.5" y2="343" gradientUnits="userSpaceOnUse">
<stop stop-color="#1D91C7"/>
<stop offset="1" stop-color="#DFEEF4"/>
</linearGradient>
</defs>
</svg>
