<svg width="529" height="514" viewBox="0 0 529 514" fill="none" xmlns="http://www.w3.org/2000/svg">
<g filter="url(#filter0_f_141_97)">
<circle cx="264.5" cy="249.5" r="123.5" fill="url(#paint0_linear_141_97)"/>
</g>
<circle cx="264.5" cy="249.5" r="93.5" fill="url(#paint1_linear_141_97)"/>
<path d="M315.059 233C315.059 235.761 312.821 238 310.059 238C307.298 238 305.059 235.761 305.059 233C304.559 230.5 307.298 215 310.059 215C312.821 215 315.559 230.5 315.059 233Z" fill="white"/>
<line x1="224" y1="244.5" x2="254" y2="244.5" stroke="black" stroke-width="3"/>
<line x1="224" y1="250.5" x2="254" y2="250.5" stroke="black" stroke-width="3"/>
<line x1="276" y1="244.5" x2="306" y2="244.5" stroke="black" stroke-width="3"/>
<line x1="276" y1="250.5" x2="306" y2="250.5" stroke="black" stroke-width="3"/>
<defs>
<filter id="filter0_f_141_97" x="0" y="-15" width="529" height="529" filterUnits="userSpaceOnUse" color-interpolation-filters="sRGB">
<feFlood flood-opacity="0" result="BackgroundImageFix"/>
<feBlend mode="normal" in="SourceGraphic" in2="BackgroundImageFix" result="shape"/>
<feGaussianBlur stdDeviation="70.5" result="effect1_foregroundBlur_141_97"/>
</filter>
<linearGradient id="paint0_linear_141_97" x1="264.5" y1="126" x2="264.5" y2="373" gradientUnits="userSpaceOnUse">
<stop stop-color="#76777B"/>
<stop offset="1" stop-color="#EAEAEA"/>
</linearGradient>
<linearGradient id="paint1_linear_141_97" x1="264.5" y1="156" x2="264.5" y2="343" gradientUnits="userSpaceOnUse">
<stop stop-color="#76777B"/>
<stop offset="1" stop-color="#EAEAEA"/>
</linearGradient>
</defs>
</svg>
