<svg width="529" height="514" viewBox="0 0 529 514" fill="none" xmlns="http://www.w3.org/2000/svg">
<g filter="url(#filter0_f_141_28)">
<circle cx="264.5" cy="249.5" r="123.5" fill="url(#paint0_linear_141_28)"/>
</g>
<circle cx="264.5" cy="249.5" r="93.5" fill="url(#paint1_linear_141_28)"/>
<path d="M290 205.48L295.52 200.181C296.431 199.307 297.948 199.88 298.053 201.139L298.962 212.044C299.064 213.27 300.517 213.858 301.443 213.05L307 208.2" stroke="white" stroke-width="2" stroke-linecap="round"/>
<path d="M303.158 193.84L307.907 191.417C308.844 190.939 309.917 191.762 309.697 192.792L308.139 200.096C307.925 201.098 308.942 201.918 309.876 201.496L314.566 199.378" stroke="white" stroke-width="1.5" stroke-linecap="round"/>
<path d="M316.658 186.622L320.73 185.851C321.557 185.694 322.196 186.567 321.796 187.308L319.049 192.398C318.66 193.12 319.257 193.978 320.069 193.863L324.03 193.307" stroke="white" stroke-width="1.5" stroke-linecap="round"/>
<path d="M234.465 233.555L234.465 233.555L234.379 233.512C233.84 233.243 233.5 232.692 233.5 232.09V231.828C233.5 231.095 234.095 230.5 234.828 230.5C235.181 230.5 235.519 230.64 235.768 230.889L235.939 231.061C236.861 231.982 238.111 232.5 239.414 232.5H241.586C242.889 232.5 244.139 231.982 245.061 231.061L244 230L245.061 231.061L245.232 230.889C245.481 230.64 245.819 230.5 246.172 230.5C246.905 230.5 247.5 231.095 247.5 231.828V232.09C247.5 232.692 247.16 233.243 246.621 233.512L246.535 233.555C246.462 233.592 246.385 233.624 246.307 233.65L245.612 233.882C244.383 234.291 243.096 234.5 241.801 234.5H239.199C237.904 234.5 236.617 234.291 235.388 233.882L234.693 233.65C234.615 233.624 234.538 233.592 234.465 233.555Z" stroke="black" stroke-width="3"/>
<path d="M282.465 233.555L282.465 233.555L282.379 233.512C281.84 233.243 281.5 232.692 281.5 232.09V231.828C281.5 231.095 282.095 230.5 282.828 230.5C283.181 230.5 283.519 230.64 283.768 230.889L283.939 231.061C284.861 231.982 286.111 232.5 287.414 232.5H289.586C290.889 232.5 292.139 231.982 293.061 231.061L292 230L293.061 231.061L293.232 230.889C293.481 230.64 293.819 230.5 294.172 230.5C294.905 230.5 295.5 231.095 295.5 231.828V232.09C295.5 232.692 295.16 233.243 294.621 233.512L294.535 233.555C294.462 233.592 294.385 233.624 294.307 233.65L293.612 233.882C292.383 234.291 291.096 234.5 289.801 234.5H287.199C285.904 234.5 284.617 234.291 283.388 233.882L282.693 233.65C282.615 233.624 282.538 233.592 282.465 233.555Z" stroke="black" stroke-width="3"/>
<ellipse cx="264.5" cy="256" rx="12.5" ry="14" fill="black"/>
<defs>
<filter id="filter0_f_141_28" x="0" y="-15" width="529" height="529" filterUnits="userSpaceOnUse" color-interpolation-filters="sRGB">
<feFlood flood-opacity="0" result="BackgroundImageFix"/>
<feBlend mode="normal" in="SourceGraphic" in2="BackgroundImageFix" result="shape"/>
<feGaussianBlur stdDeviation="70.5" result="effect1_foregroundBlur_141_28"/>
</filter>
<linearGradient id="paint0_linear_141_28" x1="264.5" y1="126" x2="264.5" y2="373" gradientUnits="userSpaceOnUse">
<stop stop-color="#FF7B00"/>
<stop offset="1" stop-color="#FEC794"/>
</linearGradient>
<linearGradient id="paint1_linear_141_28" x1="264.5" y1="156" x2="264.5" y2="343" gradientUnits="userSpaceOnUse">
<stop stop-color="#FF7B00"/>
<stop offset="1" stop-color="#FEC794"/>
</linearGradient>
</defs>
</svg>
