<svg width="529" height="514" viewBox="0 0 529 514" fill="none" xmlns="http://www.w3.org/2000/svg">
<g filter="url(#filter0_f_141_31)">
<circle cx="264.5" cy="249.5" r="123.5" fill="url(#paint0_linear_141_31)"/>
</g>
<circle cx="264.5" cy="249.5" r="93.5" fill="url(#paint1_linear_141_31)"/>
<path d="M234.248 263.184L234.682 263.432L234.248 263.184L234.227 263.22C233.598 264.321 232.427 265 231.159 265C229.746 265 228.469 264.158 227.912 262.859L227.816 262.634C227.607 262.148 227.5 261.625 227.5 261.096V260.399C227.5 258.676 228.185 257.022 229.404 255.803L229.863 255.344C230.166 255.041 230.498 254.769 230.854 254.532L232.332 253.546C232.913 253.159 233.553 252.867 234.227 252.683L235.923 252.221C236.376 252.097 236.734 252.611 236.461 252.994L236.033 253.594C235.72 254.032 235.455 254.503 235.242 254.999L234.781 256.075C234.258 257.296 234.149 258.656 234.471 259.945L234.615 260.521C234.84 261.423 234.709 262.377 234.248 263.184Z" fill="white" stroke="white" stroke-linecap="round"/>
<path d="M293.752 263.184L293.318 263.432L293.752 263.184L293.773 263.22C294.402 264.321 295.573 265 296.841 265C298.254 265 299.531 264.158 300.088 262.859L300.184 262.634C300.393 262.148 300.5 261.625 300.5 261.096V260.399C300.5 258.676 299.815 257.022 298.596 255.803L298.137 255.344C297.834 255.041 297.502 254.769 297.146 254.532L295.668 253.546C295.087 253.159 294.447 252.867 293.773 252.683L292.077 252.221C291.624 252.097 291.266 252.611 291.539 252.994L291.967 253.594C292.28 254.032 292.545 254.503 292.758 254.999L293.219 256.075C293.742 257.296 293.851 258.656 293.529 259.945L293.385 260.521C293.16 261.423 293.291 262.377 293.752 263.184Z" fill="white" stroke="white" stroke-linecap="round"/>
<path d="M233.5 228H240.6C241.524 228 242.439 227.817 243.292 227.462L245.596 226.502C247.147 225.856 248.413 224.673 249.165 223.171L250.5 220.5" stroke="black" stroke-width="3" stroke-linecap="round"/>
<path d="M295.5 228H288.486C287.506 228 286.538 227.794 285.643 227.397L283.387 226.394C281.847 225.71 280.606 224.494 279.891 222.968L278.5 220" stroke="black" stroke-width="3" stroke-linecap="round"/>
<path d="M256.289 243.064C256.744 243.591 256.883 243.959 256.922 244.136C256.854 244.149 256.751 244.159 256.604 244.148C256.24 244.121 255.679 243.963 254.989 243.504L251.905 241.452C248.628 239.271 244.346 239.33 241.129 241.6L237.8 243.951C237.83 243.874 237.864 243.793 237.901 243.709C238.51 242.357 239.734 240.998 240.667 240.522C242.201 239.74 244.617 239 248.803 239C249.408 239 250.657 239.26 252.144 239.966C253.594 240.655 255.103 241.688 256.289 243.064ZM237.021 244.45C237.022 244.45 237.023 244.449 237.027 244.448C237.023 244.449 237.021 244.45 237.021 244.45Z" stroke="black" stroke-width="4"/>
<path d="M271.711 243.064C271.256 243.591 271.117 243.959 271.078 244.136C271.146 244.149 271.249 244.159 271.396 244.148C271.76 244.121 272.321 243.963 273.011 243.504L276.095 241.452C279.372 239.271 283.654 239.33 286.871 241.6L290.2 243.951C290.17 243.874 290.136 243.793 290.099 243.709C289.49 242.357 288.266 240.998 287.333 240.522C285.799 239.74 283.383 239 279.197 239C278.592 239 277.343 239.26 275.856 239.966C274.406 240.655 272.897 241.688 271.711 243.064ZM290.979 244.45C290.978 244.45 290.977 244.449 290.973 244.448C290.977 244.449 290.979 244.45 290.979 244.45Z" stroke="black" stroke-width="4"/>
<path d="M248.894 266.945L260.958 254.373C263.753 251.461 268.425 251.509 271.158 254.478L279.941 264.017C280.918 265.078 281.544 266.416 281.731 267.847L281.814 268.479C282.22 271.573 280.529 274.562 277.668 275.808L277.362 275.941C275.898 276.578 274.26 276.696 272.72 276.275L263.882 273.857C262.254 273.412 260.52 273.57 258.999 274.302L255.462 276.004C253.043 277.168 250.14 276.482 248.499 274.359C246.776 272.131 246.944 268.977 248.894 266.945Z" fill="black" stroke="black"/>
<defs>
<filter id="filter0_f_141_31" x="0" y="-15" width="529" height="529" filterUnits="userSpaceOnUse" color-interpolation-filters="sRGB">
<feFlood flood-opacity="0" result="BackgroundImageFix"/>
<feBlend mode="normal" in="SourceGraphic" in2="BackgroundImageFix" result="shape"/>
<feGaussianBlur stdDeviation="70.5" result="effect1_foregroundBlur_141_31"/>
</filter>
<linearGradient id="paint0_linear_141_31" x1="264.5" y1="126" x2="264.5" y2="373" gradientUnits="userSpaceOnUse">
<stop stop-color="#5444FF"/>
<stop offset="1" stop-color="#E1DEFF"/>
</linearGradient>
<linearGradient id="paint1_linear_141_31" x1="264.5" y1="156" x2="264.5" y2="343" gradientUnits="userSpaceOnUse">
<stop stop-color="#5444FF"/>
<stop offset="0.0001" stop-color="#5444FF"/>
<stop offset="1" stop-color="#E1DEFF"/>
</linearGradient>
</defs>
</svg>
